<svg viewBox="0 0 520 360" fill="none" xmlns="http://www.w3.org/2000/svg">
  <defs>
    <linearGradient id="bp1" x1="0" y1="0" x2="0" y2="1"><stop offset="0%" stop-color="#0f172a"/><stop offset="100%" stop-color="#1e293b"/></linearGradient>
    <linearGradient id="bp2" x1="0" y1="0" x2="1" y2="0"><stop offset="0%" stop-color="#2563eb"/><stop offset="100%" stop-color="#60a5fa"/></linearGradient>
  </defs>
  <rect width="520" height="360" rx="16" fill="url(#bp1)"/>
  <rect x="0" y="0" width="520" height="56" rx="16" fill="#1e293b"/>
  <circle cx="24" cy="28" r="5" fill="#ef4444"/><circle cx="42" cy="28" r="5" fill="#eab308"/><circle cx="60" cy="28" r="5" fill="#22c55e"/>
  <text x="460" y="33" font-size="11" font-weight="700" fill="#64748b" text-anchor="end">pos.codexsun.com</text>
  <rect x="16" y="72" width="88" height="274" rx="8" fill="#1e293b"/>
  <rect x="16" y="72" width="88" height="4" rx="2" fill="#2563eb"/>
  <rect x="24" y="88" width="72" height="26" rx="6" fill="#2563eb20"/><text x="60" y="106" font-size="10" font-weight="700" fill="#2563eb" text-anchor="middle">New Sale</text>
  <rect x="24" y="122" width="72" height="26" rx="6" fill="#0f172a"/><text x="60" y="140" font-size="10" font-weight="600" fill="#64748b" text-anchor="middle">Invoices</text>
  <rect x="24" y="156" width="72" height="26" rx="6" fill="#0f172a"/><text x="60" y="174" font-size="10" font-weight="600" fill="#64748b" text-anchor="middle">Customers</text>
  <rect x="24" y="190" width="72" height="26" rx="6" fill="#0f172a"/><text x="60" y="208" font-size="10" font-weight="600" fill="#64748b" text-anchor="middle">Inventory</text>
  <rect x="24" y="224" width="72" height="26" rx="6" fill="#0f172a"/><text x="60" y="242" font-size="10" font-weight="600" fill="#64748b" text-anchor="middle">Reports</text>
  <rect x="116" y="72" width="270" height="200" rx="10" fill="#1e293b"/>
  <text x="134" y="98" font-size="13" font-weight="800" fill="#f1f5f9">Point of Sale — Counter #1</text>
  <rect x="134" y="110" width="232" height="1" fill="#334155"/>
  <text x="134" y="130" font-size="10" font-weight="600" fill="#cbd5e1">Premium Cotton Shirt</text><text x="350" y="130" font-size="10" fill="#22c55e" font-weight="700" text-anchor="end">$29.99</text>
  <text x="134" y="150" font-size="10" font-weight="600" fill="#cbd5e1">Denim Jacket — Blue</text><text x="350" y="150" font-size="10" fill="#22c55e" font-weight="700" text-anchor="end">$89.00</text>
  <text x="134" y="170" font-size="10" font-weight="600" fill="#cbd5e1">Formal Trousers — Black</text><text x="350" y="170" font-size="10" fill="#22c55e" font-weight="700" text-anchor="end">$54.50</text>
  <text x="134" y="190" font-size="10" font-weight="600" fill="#cbd5e1">Silk Tie — Striped</text><text x="350" y="190" font-size="10" fill="#22c55e" font-weight="700" text-anchor="end">$24.99</text>
  <rect x="134" y="202" width="232" height="1" fill="#334155"/>
  <rect x="134" y="212" width="232" height="48" rx="6" fill="#0f172a"/>
  <text x="146" y="230" font-size="10" fill="#64748b">Subtotal</text><text x="350" y="230" font-size="10" font-weight="700" fill="#f1f5f9" text-anchor="end">$198.48</text>
  <text x="146" y="248" font-size="10" fill="#64748b">GST (12%)</text><text x="350" y="248" font-size="10" font-weight="700" fill="#f97316" text-anchor="end">$23.82</text>
  <rect x="134" y="260" width="232" height="1" fill="#334155"/>
  <text x="146" y="280" font-size="18" font-weight="900" fill="#84cc16">$222.30</text>
  <rect x="398" y="72" width="106" height="200" rx="10" fill="#1e293b"/>
  <text x="416" y="98" font-size="11" font-weight="800" fill="#f1f5f9">Payment</text>
  <rect x="134" y="290" width="370" height="48" rx="10" fill="#84cc1620"/><text x="320" y="318" font-size="13" font-weight="800" fill="#84cc16" text-anchor="middle">Complete Sale</text>
  <rect x="410" y="120" width="82" height="28" rx="6" fill="#2563eb20"/><text x="451" y="139" font-size="9" font-weight="700" fill="#2563eb" text-anchor="middle">Cash</text>
  <rect x="410" y="156" width="82" height="28" rx="6" fill="#10b98120"/><text x="451" y="175" font-size="9" font-weight="700" fill="#10b981" text-anchor="middle">Card</text>
  <rect x="410" y="192" width="82" height="28" rx="6" fill="#ea580c20"/><text x="451" y="211" font-size="9" font-weight="700" fill="#ea580c" text-anchor="middle">UPI</text>
  <rect x="410" y="228" width="82" height="28" rx="6" fill="#f1f5f920"/><text x="451" y="247" font-size="9" font-weight="700" fill="#eab308" text-anchor="middle">Credit</text>
  <rect x="116" y="284" width="188" height="54" rx="8" fill="#1e293b"/>
  <rect x="134" y="296" width="80" height="28" rx="6" fill="#0f172a"/><text x="174" y="314" font-size="9" font-weight="700" fill="#64748b" text-anchor="middle">Search items...</text>
  <rect x="224" y="296" width="64" height="28" rx="6" fill="#2563eb"/><text x="256" y="314" font-size="9" font-weight="700" fill="#fff" text-anchor="middle">Scan Barcode</text>
</svg>