<svg viewBox="0 0 520 360" fill="none" xmlns="http://www.w3.org/2000/svg">
  <defs>
    <linearGradient id="e1" x1="0" y1="0" x2="0" y2="1"><stop offset="0%" stop-color="#0f172a"/><stop offset="100%" stop-color="#1e293b"/></linearGradient>
    <linearGradient id="e2" x1="0" y1="0" x2="1" y2="0"><stop offset="0%" stop-color="#2563eb"/><stop offset="100%" stop-color="#60a5fa"/></linearGradient>
  </defs>
  <rect width="520" height="360" rx="16" fill="url(#e1)"/>
  <rect x="0" y="0" width="520" height="56" rx="16" fill="#1e293b"/>
  <circle cx="24" cy="28" r="5" fill="#ef4444"/><circle cx="42" cy="28" r="5" fill="#eab308"/><circle cx="60" cy="28" r="5" fill="#22c55e"/>
  <text x="460" y="33" font-size="11" font-weight="700" fill="#64748b" text-anchor="end">sync.codexsun.com</text>
  <rect x="16" y="72" width="88" height="274" rx="8" fill="#1e293b"/>
  <rect x="16" y="72" width="88" height="4" rx="2" fill="#ea580c"/>
  <rect x="24" y="88" width="72" height="26" rx="6" fill="#ea580c20"/><text x="60" y="106" font-size="10" font-weight="700" fill="#ea580c" text-anchor="middle">Channels</text>
  <rect x="24" y="122" width="72" height="26" rx="6" fill="#0f172a"/><text x="60" y="140" font-size="10" font-weight="600" fill="#64748b" text-anchor="middle">Products</text>
  <rect x="24" y="156" width="72" height="26" rx="6" fill="#0f172a"/><text x="60" y="174" font-size="10" font-weight="600" fill="#64748b" text-anchor="middle">Inventory</text>
  <rect x="24" y="190" width="72" height="26" rx="6" fill="#0f172a"/><text x="60" y="208" font-size="10" font-weight="600" fill="#64748b" text-anchor="middle">Orders</text>
  <rect x="24" y="224" width="72" height="26" rx="6" fill="#0f172a"/><text x="60" y="242" font-size="10" font-weight="600" fill="#64748b" text-anchor="middle">Reports</text>
  <rect x="116" y="72" width="388" height="60" rx="10" fill="#1e293b"/>
  <text x="134" y="96" font-size="13" font-weight="800" fill="#f1f5f9">Connected Channels</text>
  <rect x="134" y="106" width="100" height="20" rx="10" fill="#84cc1620"/><circle cx="144" cy="116" r="4" fill="#84cc16"/><text x="154" y="120" font-size="9" font-weight="700" fill="#84cc16">Shopify Live</text>
  <rect x="244" y="106" width="100" height="20" rx="10" fill="#2563eb20"/><circle cx="254" cy="116" r="4" fill="#2563eb"/><text x="264" y="120" font-size="9" font-weight="700" fill="#2563eb">Amazon Live</text>
  <rect x="354" y="106" width="100" height="20" rx="10" fill="#10b98120"/><circle cx="364" cy="116" r="4" fill="#10b981"/><text x="374" y="120" font-size="9" font-weight="700" fill="#10b981">Flipkart Live</text>
  <rect x="116" y="144" width="388" height="200" rx="10" fill="#1e293b"/>
  <text x="134" y="170" font-size="13" font-weight="800" fill="#f1f5f9">Multi-Channel Sales Performance</text>
  <rect x="134" y="184" width="350" height="1" fill="#334155"/>
  <rect x="134" y="196" width="350" height="44" rx="6" fill="#0f172a"/>
  <text x="146" y="214" font-size="10" font-weight="600" fill="#cbd5e1">Shopify Store</text>
  <text x="470" y="214" font-size="10" font-weight="700" fill="#84cc16" text-anchor="end">$42,580</text>
  <text x="146" y="232" font-size="9" fill="#64748b">842 orders · 12.4% conversion</text>
  <rect x="134" y="248" width="350" height="44" rx="6" fill="#0f172a"/>
  <text x="146" y="266" font-size="10" font-weight="600" fill="#cbd5e1">Amazon Marketplace</text>
  <text x="470" y="266" font-size="10" font-weight="700" fill="#2563eb" text-anchor="end">$28,340</text>
  <text x="146" y="284" font-size="9" fill="#64748b">567 orders · 9.8% conversion</text>
  <rect x="134" y="300" width="350" height="36" rx="6" fill="#0f172a"/>
  <text x="146" y="318" font-size="10" font-weight="600" fill="#cbd5e1">Flipkart Wholesale</text>
  <text x="470" y="318" font-size="10" font-weight="700" fill="#10b981" text-anchor="end">$15,920</text>
</svg>