<svg viewBox="0 0 520 360" fill="none" xmlns="http://www.w3.org/2000/svg">
  <defs>
    <linearGradient id="m1" x1="0" y1="0" x2="0" y2="1"><stop offset="0%" stop-color="#0f172a"/><stop offset="100%" stop-color="#1e293b"/></linearGradient>
    <linearGradient id="m2" x1="0" y1="0" x2="1" y2="0"><stop offset="0%" stop-color="#ea580c"/><stop offset="100%" stop-color="#f97316"/></linearGradient>
  </defs>
  <rect width="520" height="360" rx="16" fill="url(#m1)"/>
  <rect x="0" y="0" width="520" height="56" rx="16" fill="#1e293b"/>
  <circle cx="24" cy="28" r="5" fill="#ef4444"/><circle cx="42" cy="28" r="5" fill="#eab308"/><circle cx="60" cy="28" r="5" fill="#22c55e"/>
  <text x="460" y="33" font-size="11" font-weight="700" fill="#64748b" text-anchor="end">analytics.codexsun.com</text>
  <rect x="16" y="72" width="88" height="274" rx="8" fill="#1e293b"/>
  <rect x="16" y="72" width="88" height="4" rx="2" fill="#ea580c"/>
  <rect x="24" y="88" width="72" height="26" rx="6" fill="#ea580c20"/><text x="60" y="106" font-size="10" font-weight="700" fill="#ea580c" text-anchor="middle">Overview</text>
  <rect x="24" y="122" width="72" height="26" rx="6" fill="#0f172a"/><text x="60" y="140" font-size="10" font-weight="600" fill="#64748b" text-anchor="middle">Campaigns</text>
  <rect x="24" y="156" width="72" height="26" rx="6" fill="#0f172a"/><text x="60" y="174" font-size="10" font-weight="600" fill="#64748b" text-anchor="middle">Analytics</text>
  <rect x="24" y="190" width="72" height="26" rx="6" fill="#0f172a"/><text x="60" y="208" font-size="10" font-weight="600" fill="#64748b" text-anchor="middle">Leads</text>
  <rect x="24" y="224" width="72" height="26" rx="6" fill="#0f172a"/><text x="60" y="242" font-size="10" font-weight="600" fill="#64748b" text-anchor="middle">ROI</text>
  <rect x="116" y="72" width="388" height="130" rx="10" fill="#1e293b"/>
  <text x="134" y="98" font-size="13" font-weight="800" fill="#f1f5f9">Marketing ROI Dashboard</text>
  <rect x="134" y="110" width="110" height="74" rx="8" fill="#0f172a"/>
  <text x="148" y="132" font-size="10" fill="#64748b">Total Spend</text>
  <text x="148" y="156" font-size="20" font-weight="900" fill="#ea580c">$18.2k</text>
  <text x="148" y="172" font-size="9" fill="#64748b">This quarter</text>
  <rect x="254" y="110" width="110" height="74" rx="8" fill="#0f172a"/>
  <text x="268" y="132" font-size="10" fill="#64748b">Revenue Attributed</text>
  <text x="268" y="156" font-size="20" font-weight="900" fill="#84cc16">$94.6k</text>
  <text x="268" y="172" font-size="9" fill="#64748b">This quarter</text>
  <rect x="374" y="110" width="110" height="74" rx="8" fill="#0f172a"/>
  <text x="388" y="132" font-size="10" fill="#64748b">ROI</text>
  <text x="388" y="156" font-size="20" font-weight="900" fill="#10b981">5.2x</text>
  <text x="388" y="172" font-size="9" fill="#64748b">520% return</text>
  <rect x="116" y="214" width="388" height="132" rx="10" fill="#1e293b"/>
  <text x="134" y="240" font-size="13" font-weight="800" fill="#f1f5f9">Lead Funnel</text>
  <rect x="134" y="252" width="350" height="1" fill="#334155"/>
  <text x="134" y="272" font-size="10" fill="#cbd5e1">Impressions</text><text x="490" y="272" font-size="10" font-weight="700" fill="#f1f5f9" text-anchor="end">124,580</text><rect x="134" y="278" width="350" height="6" rx="3" fill="#334155"/><rect x="134" y="278" width="300" height="6" rx="3" fill="#2563eb" opacity="0.6"/>
  <text x="134" y="300" font-size="10" fill="#cbd5e1">Clicks</text><text x="490" y="300" font-size="10" font-weight="700" fill="#f1f5f9" text-anchor="end">8,420</text><rect x="134" y="306" width="350" height="6" rx="3" fill="#334155"/><rect x="134" y="306" width="200" height="6" rx="3" fill="#84cc16" opacity="0.6"/>
  <text x="134" y="328" font-size="10" fill="#cbd5e1">Conversions</text><text x="490" y="328" font-size="10" font-weight="700" fill="#f1f5f9" text-anchor="end">1,247</text><rect x="134" y="334" width="350" height="6" rx="3" fill="#334155"/><rect x="134" y="334" width="80" height="6" rx="3" fill="#ea580c" opacity="0.7"/>
</svg>